<svg width="344" height="130" viewBox="0 0 344 130" fill="none" xmlns="http://www.w3.org/2000/svg">
<path d="M30.62 53V44.984C30.62 42.968 31.02 41.416 31.82 40.328C32.62 39.24 33.756 38.472 35.228 38.024L35.276 37.832L30.14 35.96V34.712C30.14 33.144 30.604 31.704 31.532 30.392C32.46 29.08 33.82 28.04 35.612 27.272C37.436 26.472 39.644 26.072 42.236 26.072C44.668 26.072 46.764 26.456 48.524 27.224C50.284 27.96 51.644 29.08 52.604 30.584C53.596 32.056 54.092 33.928 54.092 36.2V53H46.892V36.632C46.892 35.032 46.46 33.832 45.596 33.032C44.764 32.232 43.58 31.832 42.044 31.832C40.572 31.832 39.468 32.152 38.732 32.792C37.996 33.4 37.596 34.152 37.532 35.048L41.804 37.016L41.276 40.136C40.124 40.2 39.26 40.616 38.684 41.384C38.108 42.152 37.82 43.192 37.82 44.504V53H30.62ZM69.8371 53.624C67.9491 53.624 66.0451 53.416 64.1251 53C62.2371 52.584 60.5571 51.992 59.0851 51.224L61.1011 45.512C61.7411 45.864 62.5091 46.232 63.4051 46.616C64.3011 47 65.2771 47.32 66.3331 47.576C67.3891 47.832 68.4611 47.96 69.5491 47.96C70.8291 47.96 71.7891 47.784 72.4291 47.432C73.1011 47.048 73.4371 46.472 73.4371 45.704C73.4371 45.128 73.2131 44.664 72.7651 44.312C72.3491 43.928 71.7251 43.576 70.8931 43.256C70.0611 42.904 69.0691 42.536 67.9171 42.152C66.2211 41.544 64.7651 40.888 63.5491 40.184C62.3331 39.48 61.3891 38.616 60.7171 37.592C60.0771 36.568 59.7571 35.288 59.7571 33.752C59.7571 31.992 60.2051 30.552 61.1011 29.432C61.9971 28.312 63.2611 27.48 64.8931 26.936C66.5251 26.36 68.4291 26.072 70.6051 26.072C72.3971 26.072 74.0131 26.216 75.4531 26.504C76.8931 26.792 78.0131 27.16 78.8131 27.608V33.272C78.2691 33.016 77.5491 32.76 76.6531 32.504C75.7891 32.248 74.8451 32.04 73.8211 31.88C72.8291 31.688 71.8691 31.592 70.9411 31.592C69.6291 31.592 68.6371 31.768 67.9651 32.12C67.2931 32.472 66.9571 32.968 66.9571 33.608C66.9571 34.12 67.1811 34.552 67.6291 34.904C68.1091 35.256 68.7971 35.592 69.6931 35.912C70.5891 36.2 71.6611 36.568 72.9091 37.016C74.5731 37.592 75.9811 38.232 77.1331 38.936C78.2851 39.64 79.1491 40.504 79.7251 41.528C80.3331 42.552 80.6371 43.816 80.6371 45.32C80.6371 46.76 80.3011 48.12 79.6291 49.4C78.9891 50.648 77.8851 51.672 76.3171 52.472C74.7491 53.24 72.5891 53.624 69.8371 53.624ZM71.9859 65.528V61.256C71.9859 60.456 71.6339 60.056 70.9299 60.056C70.7699 60.056 70.6099 60.072 70.4499 60.104C70.2899 60.136 70.1299 60.184 69.9699 60.248L69.6339 56.792C70.0819 56.632 70.7059 56.472 71.5059 56.312C72.2739 56.152 73.0579 56.072 73.8579 56.072C75.4259 56.072 76.5299 56.376 77.1699 56.984C77.8099 57.624 78.1299 58.488 78.1299 59.576V65.528H71.9859ZM92.1849 53.48C90.8089 53.48 89.6089 53.256 88.5849 52.808C87.5929 52.36 86.8089 51.688 86.2329 50.792C85.6889 49.864 85.4169 48.712 85.4169 47.336V44.216C85.4169 42.328 85.8329 40.936 86.6649 40.04C87.4969 39.144 88.6489 38.472 90.1209 38.024L90.1689 37.832L84.9369 35.96V34.712C84.9369 33.08 85.3849 31.624 86.2809 30.344C87.2089 29.032 88.5529 27.992 90.3129 27.224C92.0729 26.456 94.2169 26.072 96.7449 26.072C99.1129 26.072 101.145 26.44 102.841 27.176C104.569 27.88 105.897 28.952 106.825 30.392C107.753 31.8 108.217 33.576 108.217 35.72V42.92C108.217 44.456 108.553 45.56 109.225 46.232C109.897 46.904 110.729 47.24 111.721 47.24C112.649 47.24 113.449 46.984 114.121 46.472C114.793 45.928 115.321 45.192 115.705 44.264C116.089 43.304 116.281 42.184 116.281 40.904V26.696H123.481V53H117.913L117.097 48.872H116.713C116.137 50.216 115.193 51.32 113.881 52.184C112.601 53.048 111.001 53.48 109.081 53.48C106.457 53.48 104.473 52.792 103.129 51.416C101.817 50.008 101.161 47.8 101.161 44.792V36.248C101.161 35.128 100.953 34.248 100.537 33.608C100.153 32.936 99.6249 32.456 98.9529 32.168C98.2809 31.88 97.5129 31.736 96.6489 31.736C95.4329 31.736 94.4249 32.008 93.6249 32.552C92.8249 33.064 92.3929 33.848 92.3289 34.904L96.5049 36.92L96.0249 40.04C94.8409 40.072 93.9449 40.36 93.3369 40.904C92.7289 41.416 92.4249 42.328 92.4249 43.64V46.568C92.4249 47.272 92.5689 47.784 92.8569 48.104C93.1769 48.392 93.6729 48.536 94.3449 48.536C94.6329 48.536 94.9209 48.52 95.2089 48.488C95.5289 48.424 95.8009 48.344 96.0249 48.248L96.6969 52.52C96.0889 52.84 95.4009 53.08 94.6329 53.24C93.8649 53.4 93.0489 53.48 92.1849 53.48ZM137.57 53V35.624C137.57 34.28 137.25 33.304 136.61 32.696C136.002 32.088 134.994 31.784 133.586 31.784C132.53 31.784 131.554 31.928 130.658 32.216C129.794 32.504 128.978 32.856 128.21 33.272V27.512C128.914 27.192 129.906 26.872 131.186 26.552C132.466 26.232 133.97 26.072 135.698 26.072C137.458 26.072 139.01 26.328 140.354 26.84C141.73 27.352 142.802 28.216 143.57 29.432C144.37 30.616 144.77 32.248 144.77 34.328V53H137.57ZM160.493 53.624C158.605 53.624 156.701 53.416 154.781 53C152.893 52.584 151.213 51.992 149.741 51.224L151.757 45.512C152.397 45.864 153.165 46.232 154.061 46.616C154.957 47 155.933 47.32 156.989 47.576C158.045 47.832 159.117 47.96 160.205 47.96C161.485 47.96 162.445 47.784 163.085 47.432C163.757 47.048 164.093 46.472 164.093 45.704C164.093 45.128 163.869 44.664 163.421 44.312C163.005 43.928 162.381 43.576 161.549 43.256C160.717 42.904 159.725 42.536 158.573 42.152C156.877 41.544 155.421 40.888 154.205 40.184C152.989 39.48 152.045 38.616 151.373 37.592C150.733 36.568 150.413 35.288 150.413 33.752C150.413 31.992 150.861 30.552 151.757 29.432C152.653 28.312 153.917 27.48 155.549 26.936C157.181 26.36 159.085 26.072 161.261 26.072C163.053 26.072 164.669 26.216 166.109 26.504C167.549 26.792 168.669 27.16 169.469 27.608V33.272C168.925 33.016 168.205 32.76 167.309 32.504C166.445 32.248 165.501 32.04 164.477 31.88C163.485 31.688 162.525 31.592 161.597 31.592C160.285 31.592 159.293 31.768 158.621 32.12C157.949 32.472 157.613 32.968 157.613 33.608C157.613 34.12 157.837 34.552 158.285 34.904C158.765 35.256 159.453 35.592 160.349 35.912C161.245 36.2 162.317 36.568 163.565 37.016C165.229 37.592 166.637 38.232 167.789 38.936C168.941 39.64 169.805 40.504 170.381 41.528C170.989 42.552 171.293 43.816 171.293 45.32C171.293 46.76 170.957 48.12 170.285 49.4C169.645 50.648 168.541 51.672 166.973 52.472C165.405 53.24 163.245 53.624 160.493 53.624ZM186.777 53.624C182.873 53.624 179.977 52.68 178.089 50.792C176.201 48.872 175.257 46.04 175.257 42.296C175.257 41.656 175.273 40.888 175.305 39.992C175.369 39.064 175.449 38.248 175.545 37.544H187.065V42.104H182.313V42.776C182.313 44.056 182.473 45.112 182.793 45.944C183.113 46.744 183.593 47.336 184.233 47.72C184.905 48.104 185.737 48.296 186.729 48.296C187.817 48.296 188.729 48.056 189.465 47.576C190.233 47.096 190.809 46.28 191.193 45.128C191.609 43.976 191.817 42.392 191.817 40.376C191.817 38.488 191.593 36.92 191.145 35.672C190.729 34.392 190.009 33.432 188.985 32.792C187.993 32.152 186.617 31.832 184.857 31.832C183.897 31.832 182.905 31.944 181.881 32.168C180.857 32.36 179.881 32.616 178.953 32.936C178.057 33.256 177.273 33.608 176.601 33.992V27.992C177.305 27.608 178.169 27.272 179.193 26.984C180.249 26.696 181.385 26.472 182.601 26.312C183.817 26.152 185.017 26.072 186.201 26.072C189.305 26.072 191.801 26.648 193.689 27.8C195.609 28.92 197.001 30.52 197.865 32.6C198.761 34.68 199.209 37.144 199.209 39.992C199.209 42.904 198.777 45.384 197.913 47.432C197.081 49.448 195.753 50.984 193.929 52.04C192.105 53.096 189.721 53.624 186.777 53.624ZM215.998 53.624C212.286 53.624 209.502 52.792 207.646 51.128C205.79 49.464 204.862 47.112 204.862 44.072V42.488C204.862 40.984 205.118 39.704 205.63 38.648C206.142 37.592 206.894 36.504 207.886 35.384C208.206 35.032 208.542 34.632 208.894 34.184C209.278 33.736 209.486 33.304 209.518 32.888L209.374 32.84C209.054 33 208.718 33.128 208.366 33.224C208.046 33.32 207.694 33.368 207.31 33.368C206.126 33.368 205.15 32.936 204.382 32.072C203.646 31.208 203.278 29.992 203.278 28.424V26.696H208.414C208.414 27.592 208.526 28.232 208.75 28.616C208.974 29 209.326 29.192 209.806 29.192C210.062 29.192 210.35 29.144 210.67 29.048C210.99 28.92 211.294 28.744 211.582 28.52L212.35 26.696H215.902V29.912C215.902 30.936 215.854 31.784 215.758 32.456C215.694 33.128 215.534 33.736 215.278 34.28C215.054 34.824 214.702 35.448 214.222 36.152C213.838 36.728 213.47 37.256 213.118 37.736C212.798 38.216 212.542 38.744 212.35 39.32C212.158 39.896 212.062 40.648 212.062 41.576V43.496C212.062 44.552 212.206 45.416 212.494 46.088C212.814 46.76 213.262 47.256 213.838 47.576C214.446 47.864 215.166 48.008 215.998 48.008C217.406 48.008 218.43 47.64 219.07 46.904C219.71 46.136 220.03 45.112 220.03 43.832V39.176C220.03 38.216 219.822 37.464 219.406 36.92C218.99 36.344 218.318 36.056 217.39 36.056H217.246V32.264H217.438C218.398 32.264 219.102 31.992 219.55 31.448C219.998 30.904 220.286 30.216 220.414 29.384C220.542 28.52 220.606 27.624 220.606 26.696H227.71C227.71 28.648 227.454 30.248 226.942 31.496C226.462 32.744 225.566 33.624 224.254 34.136V34.328C225.342 34.648 226.094 35.24 226.51 36.104C226.926 36.936 227.134 38.008 227.134 39.32V44.024C227.134 47.16 226.19 49.544 224.302 51.176C222.446 52.808 219.678 53.624 215.998 53.624ZM220.747 23.048C219.243 23.048 218.059 22.824 217.195 22.376C216.331 21.928 215.723 21.368 215.371 20.696C214.987 19.992 214.795 19.256 214.795 18.488C214.795 17.944 214.875 17.368 215.035 16.76C215.195 16.12 215.435 15.528 215.755 14.984L220.987 15.656C220.923 15.88 220.875 16.12 220.843 16.376C220.779 16.6 220.747 16.808 220.747 17C220.747 17.448 220.891 17.8 221.179 18.056C221.435 18.28 221.883 18.392 222.523 18.392H232.843V23.048H220.747ZM233.448 53V44.984C233.448 42.968 233.848 41.416 234.648 40.328C235.448 39.24 236.584 38.472 238.056 38.024L238.104 37.832L232.968 35.96V34.712C232.968 33.144 233.432 31.704 234.36 30.392C235.288 29.08 236.648 28.04 238.44 27.272C240.264 26.472 242.472 26.072 245.064 26.072C247.496 26.072 249.592 26.456 251.352 27.224C253.112 27.96 254.472 29.08 255.432 30.584C256.424 32.056 256.92 33.928 256.92 36.2V53H249.72V36.632C249.72 35.032 249.288 33.832 248.424 33.032C247.592 32.232 246.408 31.832 244.872 31.832C243.4 31.832 242.296 32.152 241.56 32.792C240.824 33.4 240.424 34.152 240.36 35.048L244.632 37.016L244.104 40.136C242.952 40.2 242.088 40.616 241.512 41.384C240.936 42.152 240.648 43.192 240.648 44.504V53H233.448ZM263.641 53V37.4C263.641 33.72 264.617 30.92 266.569 29C268.521 27.048 271.609 26.072 275.833 26.072C280.089 26.072 283.161 27.048 285.049 29C286.969 30.92 287.929 33.72 287.929 37.4V53H280.777V37.304C280.777 35.608 280.377 34.28 279.577 33.32C278.809 32.328 277.529 31.832 275.737 31.832C273.977 31.832 272.697 32.328 271.897 33.32C271.129 34.28 270.745 35.608 270.745 37.304V41.48L270.889 41.528C271.497 40.28 272.217 39.464 273.049 39.08C273.913 38.664 275.081 38.456 276.553 38.456H277.657V43.832H276.553C274.953 43.832 273.737 44.104 272.905 44.648C272.073 45.192 271.497 45.912 271.177 46.808C270.889 47.672 270.745 48.648 270.745 49.736V53H263.641ZM303.697 53.624C301.809 53.624 299.905 53.416 297.985 53C296.097 52.584 294.417 51.992 292.945 51.224L294.961 45.512C295.601 45.864 296.369 46.232 297.265 46.616C298.161 47 299.137 47.32 300.193 47.576C301.249 47.832 302.321 47.96 303.409 47.96C304.689 47.96 305.649 47.784 306.289 47.432C306.961 47.048 307.297 46.472 307.297 45.704C307.297 45.128 307.073 44.664 306.625 44.312C306.209 43.928 305.585 43.576 304.753 43.256C303.921 42.904 302.929 42.536 301.777 42.152C300.081 41.544 298.625 40.888 297.409 40.184C296.193 39.48 295.249 38.616 294.577 37.592C293.937 36.568 293.617 35.288 293.617 33.752C293.617 31.992 294.065 30.552 294.961 29.432C295.857 28.312 297.121 27.48 298.753 26.936C300.385 26.36 302.289 26.072 304.465 26.072C306.257 26.072 307.873 26.216 309.313 26.504C310.753 26.792 311.873 27.16 312.673 27.608V33.272C312.129 33.016 311.409 32.76 310.513 32.504C309.649 32.248 308.705 32.04 307.681 31.88C306.689 31.688 305.729 31.592 304.801 31.592C303.489 31.592 302.497 31.768 301.825 32.12C301.153 32.472 300.817 32.968 300.817 33.608C300.817 34.12 301.041 34.552 301.489 34.904C301.969 35.256 302.657 35.592 303.553 35.912C304.449 36.2 305.521 36.568 306.769 37.016C308.433 37.592 309.841 38.232 310.993 38.936C312.145 39.64 313.009 40.504 313.585 41.528C314.193 42.552 314.497 43.816 314.497 45.32C314.497 46.76 314.161 48.12 313.489 49.4C312.849 50.648 311.745 51.672 310.177 52.472C308.609 53.24 306.449 53.624 303.697 53.624ZM304.597 65.72C302.037 65.72 300.165 65.336 298.981 64.568C297.797 63.8 297.205 62.792 297.205 61.544V60.728C297.205 60.184 297.061 59.848 296.773 59.72C296.485 59.624 296.101 59.64 295.621 59.768L295.285 56.552C295.733 56.36 296.309 56.232 297.013 56.168C297.717 56.104 298.293 56.072 298.741 56.072C300.149 56.072 301.173 56.328 301.813 56.84C302.421 57.352 302.725 58.072 302.725 59V60.104C302.725 60.648 302.853 61.064 303.109 61.352C303.333 61.672 303.765 61.832 304.405 61.832C305.077 61.832 305.541 61.672 305.797 61.352C306.053 61.064 306.181 60.648 306.181 60.104V56.216H312.037V60.872C312.037 62.44 311.445 63.64 310.261 64.472C309.077 65.304 307.189 65.72 304.597 65.72ZM306.015 23.048V12.152H312.639V23.048H306.015Z" fill="white"/>
<path d="M7.52 117.32C6.26133 117.32 5.088 117.203 4 116.968C2.93333 116.712 2.02667 116.413 1.28 116.072L2.112 113.768C2.56 113.939 3.072 114.12 3.648 114.312C4.224 114.504 4.84267 114.664 5.504 114.792C6.18667 114.899 6.88 114.952 7.584 114.952C8.71467 114.952 9.65333 114.739 10.4 114.312C11.1467 113.885 11.52 113.267 11.52 112.456C11.52 111.965 11.3813 111.549 11.104 111.208C10.848 110.845 10.4427 110.515 9.888 110.216C9.33333 109.917 8.61867 109.629 7.744 109.352C6.4 108.925 5.25867 108.477 4.32 108.008C3.40267 107.517 2.69867 106.941 2.208 106.28C1.73867 105.597 1.504 104.755 1.504 103.752C1.504 102.856 1.73867 102.067 2.208 101.384C2.69867 100.68 3.44533 100.136 4.448 99.752C5.472 99.3467 6.77333 99.144 8.352 99.144C9.376 99.144 10.336 99.24 11.232 99.432C12.1493 99.6027 12.864 99.848 13.376 100.168V102.568C13.0133 102.397 12.5547 102.227 12 102.056C11.4667 101.885 10.88 101.747 10.24 101.64C9.6 101.533 8.93867 101.48 8.256 101.48C6.82667 101.48 5.81333 101.704 5.216 102.152C4.64 102.579 4.352 103.069 4.352 103.624C4.352 104.093 4.48 104.488 4.736 104.808C5.01333 105.128 5.472 105.437 6.112 105.736C6.77333 106.035 7.65867 106.376 8.768 106.76C9.792 107.101 10.7307 107.496 11.584 107.944C12.4373 108.392 13.1093 108.957 13.6 109.64C14.112 110.301 14.368 111.155 14.368 112.2C14.368 113.096 14.144 113.939 13.696 114.728C13.2693 115.496 12.5547 116.125 11.552 116.616C10.5493 117.085 9.20533 117.32 7.52 117.32ZM20.521 105.992C19.6463 105.992 18.9317 105.864 18.377 105.608C17.8437 105.331 17.4597 104.989 17.225 104.584C16.9903 104.157 16.873 103.709 16.873 103.24C16.873 102.92 16.9157 102.589 17.001 102.248C17.1077 101.907 17.2357 101.619 17.385 101.384L19.785 101.768C19.7423 101.875 19.689 102.024 19.625 102.216C19.5823 102.408 19.561 102.6 19.561 102.792C19.561 103.069 19.6357 103.304 19.785 103.496C19.9343 103.667 20.2117 103.752 20.617 103.752H25.193V105.992H20.521ZM20.521 114.952C19.6463 114.952 18.9317 114.824 18.377 114.568C17.8437 114.291 17.4597 113.949 17.225 113.544C16.9903 113.117 16.873 112.669 16.873 112.2C16.873 111.88 16.9157 111.549 17.001 111.208C17.1077 110.867 17.2357 110.579 17.385 110.344L19.785 110.728C19.7423 110.835 19.689 110.984 19.625 111.176C19.5823 111.368 19.561 111.56 19.561 111.752C19.561 112.029 19.6357 112.264 19.785 112.456C19.9343 112.627 20.2117 112.712 20.617 112.712H25.193V114.952H20.521ZM36.0695 117.32C33.5522 117.32 31.7495 116.744 30.6615 115.592C29.5735 114.44 29.0295 112.797 29.0295 110.664V99.464H31.8775V110.696C31.8775 112.125 32.2188 113.192 32.9015 113.896C33.5842 114.6 34.6402 114.952 36.0695 114.952C37.5202 114.952 38.5868 114.6 39.2695 113.896C39.9735 113.192 40.3255 112.125 40.3255 110.696V99.464H43.1735V110.664C43.1735 112.797 42.6188 114.44 41.5095 115.592C40.4215 116.744 38.6082 117.32 36.0695 117.32ZM55.382 117.32C52.8647 117.32 51.062 116.744 49.974 115.592C48.886 114.44 48.342 112.797 48.342 110.664V99.464H51.19V110.696C51.19 112.125 51.5313 113.192 52.214 113.896C52.8967 114.6 53.9527 114.952 55.382 114.952C56.8327 114.952 57.8993 114.6 58.582 113.896C59.286 113.192 59.638 112.125 59.638 110.696V99.464H62.486V110.664C62.486 112.797 61.9313 114.44 60.822 115.592C59.734 116.744 57.9207 117.32 55.382 117.32ZM67.4945 117V110.92C67.4945 109.576 67.7932 108.605 68.3905 108.008C68.9878 107.389 69.7452 106.963 70.6625 106.728L70.6945 106.632L67.1745 105.288V104.232C67.1745 103.357 67.4625 102.536 68.0385 101.768C68.6145 100.979 69.4358 100.349 70.5025 99.88C71.5905 99.3893 72.8812 99.144 74.3745 99.144C75.6758 99.144 76.8812 99.3573 77.9905 99.784C79.0998 100.189 79.9852 100.84 80.6465 101.736C81.3292 102.611 81.6705 103.763 81.6705 105.192V117H78.8225V105.48C78.8225 104.051 78.3852 103.037 77.5105 102.44C76.6572 101.821 75.6012 101.512 74.3425 101.512C73.0412 101.512 72.0065 101.789 71.2385 102.344C70.4705 102.877 70.0865 103.56 70.0865 104.392L73.5425 106.12L73.2865 107.656C72.4972 107.656 71.8038 107.923 71.2065 108.456C70.6305 108.968 70.3425 109.789 70.3425 110.92V117H67.4945ZM79.0675 97.448C78.0008 97.448 77.1582 97.2027 76.5395 96.712C75.9208 96.2 75.6115 95.4853 75.6115 94.568C75.6115 93.6293 75.9208 92.9147 76.5395 92.424C77.1582 91.9333 78.0008 91.688 79.0675 91.688C80.1342 91.688 80.9875 91.9333 81.6275 92.424C82.2675 92.9147 82.5875 93.6293 82.5875 94.568C82.5875 95.4853 82.2675 96.2 81.6275 96.712C80.9875 97.2027 80.1342 97.448 79.0675 97.448ZM79.0675 95.944C79.5795 95.944 79.9742 95.816 80.2515 95.56C80.5075 95.304 80.6355 94.9733 80.6355 94.568C80.6355 94.1413 80.5075 93.8107 80.2515 93.576C79.9742 93.32 79.5795 93.192 79.0675 93.192C78.5768 93.192 78.2035 93.32 77.9475 93.576C77.6702 93.8107 77.5315 94.1413 77.5315 94.568C77.5315 94.9733 77.6702 95.304 77.9475 95.56C78.2035 95.816 78.5768 95.944 79.0675 95.944ZM91.802 117V104.552C91.802 103.507 91.5567 102.739 91.066 102.248C90.5967 101.757 89.7967 101.512 88.666 101.512C87.898 101.512 87.1727 101.619 86.49 101.832C85.8287 102.024 85.1887 102.301 84.57 102.664V100.104C84.9967 99.8907 85.6047 99.6773 86.394 99.464C87.1833 99.2507 88.122 99.144 89.21 99.144C90.3193 99.144 91.2793 99.304 92.09 99.624C92.9007 99.944 93.53 100.477 93.978 101.224C94.426 101.949 94.65 102.92 94.65 104.136V117H91.802ZM110.114 117V105.32C110.114 103.933 109.794 102.952 109.154 102.376C108.535 101.779 107.49 101.48 106.018 101.48C104.951 101.48 103.927 101.629 102.946 101.928C101.986 102.205 101.069 102.6 100.194 103.112V100.456C100.813 100.136 101.645 99.8373 102.69 99.56C103.757 99.2827 104.951 99.144 106.274 99.144C107.405 99.144 108.386 99.272 109.218 99.528C110.05 99.7627 110.733 100.125 111.266 100.616C111.821 101.107 112.237 101.736 112.514 102.504C112.791 103.251 112.93 104.136 112.93 105.16V117H110.114ZM104.61 117.32C102.733 117.32 101.293 116.893 100.29 116.04C99.3087 115.165 98.818 113.917 98.818 112.296C98.818 110.525 99.458 109.16 100.738 108.2C102.039 107.24 104.141 106.675 107.042 106.504L110.69 106.28V108.648L107.426 108.872C105.25 109.021 103.746 109.363 102.914 109.896C102.103 110.429 101.698 111.208 101.698 112.232C101.698 113.192 101.997 113.896 102.594 114.344C103.213 114.792 104.066 115.016 105.154 115.016C105.517 115.016 105.847 114.995 106.146 114.952C106.445 114.888 106.733 114.813 107.01 114.728L107.458 116.872C107.053 117.021 106.605 117.128 106.114 117.192C105.645 117.277 105.143 117.32 104.61 117.32ZM108.4 96.68C107.504 96.68 106.79 96.552 106.256 96.296C105.723 96.04 105.339 95.7093 105.104 95.304C104.848 94.8987 104.72 94.472 104.72 94.024C104.72 93.704 104.774 93.3627 104.88 93C104.966 92.616 105.083 92.3067 105.232 92.072L107.632 92.488C107.59 92.5733 107.547 92.7227 107.504 92.936C107.462 93.128 107.44 93.3093 107.44 93.48C107.44 93.7573 107.526 94.0027 107.696 94.216C107.867 94.408 108.155 94.504 108.56 94.504H116.657V96.68H108.4ZM121.003 117L115.531 99.464H118.411L123.147 114.536H123.531C124.043 114.536 124.545 114.419 125.035 114.184C125.526 113.928 125.942 113.608 126.283 113.224C126.923 112.52 127.393 111.635 127.691 110.568C127.99 109.48 128.139 108.413 128.139 107.368C128.139 105.597 127.734 104.211 126.923 103.208C126.134 102.184 125.035 101.672 123.627 101.672C123.35 101.672 123.073 101.693 122.795 101.736C122.539 101.779 122.326 101.832 122.155 101.896L121.451 99.624C121.899 99.496 122.315 99.4107 122.699 99.368C123.105 99.3253 123.467 99.304 123.787 99.304C124.854 99.304 125.803 99.464 126.635 99.784C127.489 100.083 128.214 100.531 128.811 101.128C129.558 101.853 130.102 102.76 130.443 103.848C130.806 104.936 130.987 106.141 130.987 107.464C130.987 109.128 130.731 110.611 130.219 111.912C129.707 113.192 129.067 114.216 128.299 114.984C127.681 115.603 126.923 116.093 126.027 116.456C125.131 116.819 123.99 117 122.603 117H121.003ZM141.519 117.32C139.727 117.32 138.34 116.915 137.359 116.104C136.377 115.272 135.695 114.152 135.311 112.744C134.927 111.315 134.735 109.693 134.735 107.88C134.735 105.789 134.927 104.104 135.311 102.824C135.716 101.544 136.303 100.616 137.071 100.04C137.839 99.4427 138.777 99.144 139.887 99.144C140.633 99.144 141.263 99.272 141.775 99.528C142.308 99.784 142.681 100.211 142.895 100.808H143.023C143.236 100.189 143.62 99.7627 144.175 99.528C144.729 99.272 145.38 99.144 146.127 99.144C147.513 99.144 148.58 99.5173 149.327 100.264C150.095 100.989 150.479 102.109 150.479 103.624V117H147.631V103.656C147.631 102.824 147.449 102.259 147.087 101.96C146.724 101.661 146.265 101.512 145.711 101.512C145.092 101.512 144.633 101.661 144.335 101.96C144.057 102.259 143.887 102.749 143.823 103.432H142.031C141.945 102.685 141.721 102.184 141.359 101.928C140.996 101.651 140.591 101.512 140.143 101.512C139.289 101.512 138.649 102.013 138.223 103.016C137.796 103.997 137.583 105.629 137.583 107.912C137.583 109.384 137.689 110.643 137.903 111.688C138.137 112.733 138.564 113.544 139.183 114.12C139.801 114.675 140.697 114.952 141.871 114.952C142.297 114.952 142.649 114.931 142.927 114.888C143.204 114.845 143.471 114.792 143.727 114.728L144.015 116.904C143.695 117.053 143.311 117.16 142.863 117.224C142.415 117.288 141.967 117.32 141.519 117.32ZM160.583 117.32C159.324 117.32 158.151 117.203 157.062 116.968C155.996 116.712 155.089 116.413 154.343 116.072L155.174 113.768C155.623 113.939 156.135 114.12 156.711 114.312C157.287 114.504 157.905 114.664 158.567 114.792C159.249 114.899 159.943 114.952 160.647 114.952C161.777 114.952 162.716 114.739 163.463 114.312C164.209 113.885 164.583 113.267 164.583 112.456C164.583 111.965 164.444 111.549 164.167 111.208C163.911 110.845 163.505 110.515 162.951 110.216C162.396 109.917 161.681 109.629 160.807 109.352C159.463 108.925 158.321 108.477 157.383 108.008C156.465 107.517 155.761 106.941 155.271 106.28C154.801 105.597 154.567 104.755 154.567 103.752C154.567 102.856 154.801 102.067 155.271 101.384C155.761 100.68 156.508 100.136 157.511 99.752C158.535 99.3467 159.836 99.144 161.415 99.144C162.439 99.144 163.399 99.24 164.295 99.432C165.212 99.6027 165.927 99.848 166.439 100.168V102.568C166.076 102.397 165.617 102.227 165.063 102.056C164.529 101.885 163.943 101.747 163.303 101.64C162.663 101.533 162.001 101.48 161.319 101.48C159.889 101.48 158.876 101.704 158.279 102.152C157.703 102.579 157.415 103.069 157.415 103.624C157.415 104.093 157.543 104.488 157.799 104.808C158.076 105.128 158.535 105.437 159.175 105.736C159.836 106.035 160.721 106.376 161.831 106.76C162.855 107.101 163.793 107.496 164.647 107.944C165.5 108.392 166.172 108.957 166.663 109.64C167.175 110.301 167.431 111.155 167.431 112.2C167.431 113.096 167.207 113.939 166.759 114.728C166.332 115.496 165.617 116.125 164.615 116.616C163.612 117.085 162.268 117.32 160.583 117.32ZM174.8 117.32C173.968 117.32 173.157 117.235 172.368 117.064C171.6 116.893 170.778 116.573 169.904 116.104L170.799 113.928C171.269 114.205 171.802 114.451 172.4 114.664C172.997 114.856 173.69 114.952 174.48 114.952C176.058 114.952 177.285 114.376 178.16 113.224C179.056 112.051 179.504 110.365 179.504 108.168C179.504 106.013 179.045 104.371 178.128 103.24C177.232 102.088 175.845 101.512 173.968 101.512C173.285 101.512 172.592 101.587 171.888 101.736C171.184 101.885 170.565 102.109 170.032 102.408V100.008C170.65 99.688 171.322 99.464 172.048 99.336C172.794 99.208 173.541 99.144 174.288 99.144C176.208 99.144 177.765 99.528 178.96 100.296C180.154 101.043 181.029 102.088 181.584 103.432C182.138 104.776 182.416 106.355 182.416 108.168C182.416 110.984 181.776 113.213 180.496 114.856C179.237 116.499 177.338 117.32 174.8 117.32ZM189.141 117V109.192H186.71V106.952H191.862V114.696H192.278C193.238 114.696 194.038 114.483 194.678 114.056C195.318 113.629 195.798 112.936 196.118 111.976C196.438 111.016 196.598 109.747 196.598 108.168C196.598 106.589 196.416 105.309 196.054 104.328C195.712 103.347 195.147 102.632 194.358 102.184C193.59 101.736 192.544 101.512 191.222 101.512C190.219 101.512 189.248 101.651 188.31 101.928C187.392 102.184 186.507 102.589 185.654 103.144V100.488C186.294 100.104 187.136 99.784 188.182 99.528C189.227 99.272 190.358 99.144 191.574 99.144C193.515 99.144 195.062 99.5067 196.214 100.232C197.387 100.936 198.23 101.96 198.742 103.304C199.254 104.648 199.51 106.28 199.51 108.2C199.51 110.056 199.254 111.645 198.742 112.968C198.251 114.269 197.44 115.272 196.31 115.976C195.2 116.659 193.707 117 191.83 117H189.141ZM214.333 117V105.32C214.333 103.933 214.013 102.952 213.373 102.376C212.754 101.779 211.709 101.48 210.237 101.48C209.17 101.48 208.146 101.629 207.165 101.928C206.205 102.205 205.287 102.6 204.413 103.112V100.456C205.031 100.136 205.863 99.8373 206.909 99.56C207.975 99.2827 209.17 99.144 210.493 99.144C211.623 99.144 212.583 99.272 213.373 99.528C214.183 99.784 214.781 100.253 215.165 100.936C215.911 101.277 216.423 101.811 216.701 102.536C216.999 103.261 217.149 104.136 217.149 105.16V117H214.333ZM208.829 117.32C206.951 117.32 205.511 116.893 204.509 116.04C203.527 115.165 203.037 113.917 203.037 112.296C203.037 110.525 203.677 109.16 204.957 108.2C206.258 107.24 208.359 106.675 211.261 106.504L214.909 106.28V108.648L211.645 108.872C209.469 109.021 207.965 109.363 207.133 109.896C206.322 110.429 205.917 111.208 205.917 112.232C205.917 113.192 206.215 113.896 206.813 114.344C207.431 114.792 208.285 115.016 209.373 115.016C209.735 115.016 210.066 114.995 210.365 114.952C210.663 114.888 210.951 114.813 211.229 114.728L211.677 116.872C211.271 117.021 210.823 117.128 210.333 117.192C209.863 117.277 209.362 117.32 208.829 117.32ZM215.069 101.928L213.469 100.424C214.023 100.339 214.546 100.125 215.037 99.784C215.527 99.4427 215.773 98.952 215.773 98.312H218.557C218.557 98.9733 218.397 99.56 218.077 100.072C217.778 100.563 217.362 100.968 216.829 101.288C216.295 101.587 215.709 101.8 215.069 101.928ZM228.581 117.32C226.277 117.32 224.549 116.723 223.397 115.528C222.267 114.312 221.701 112.413 221.701 109.832C221.701 109.405 221.712 108.947 221.733 108.456C221.776 107.944 221.819 107.443 221.861 106.952H228.581V109.192H224.549V109.832C224.549 111.176 224.699 112.232 224.997 113C225.296 113.747 225.733 114.269 226.309 114.568C226.907 114.867 227.643 115.016 228.517 115.016C229.477 115.016 230.309 114.835 231.013 114.472C231.717 114.109 232.261 113.448 232.645 112.488C233.029 111.528 233.221 110.152 233.221 108.36C233.221 106.781 233.051 105.491 232.709 104.488C232.368 103.485 231.803 102.739 231.013 102.248C230.245 101.757 229.2 101.512 227.877 101.512C227.195 101.512 226.533 101.576 225.893 101.704C225.253 101.811 224.635 101.981 224.037 102.216C223.44 102.429 222.853 102.707 222.277 103.048V100.392C222.704 100.157 223.227 99.9547 223.845 99.784C224.464 99.592 225.147 99.4427 225.893 99.336C226.64 99.208 227.419 99.144 228.229 99.144C230.107 99.144 231.621 99.528 232.773 100.296C233.947 101.043 234.8 102.109 235.333 103.496C235.867 104.861 236.133 106.483 236.133 108.36C236.133 110.237 235.888 111.848 235.397 113.192C234.907 114.536 234.107 115.56 232.997 116.264C231.909 116.968 230.437 117.32 228.581 117.32ZM247.788 117.32C245.271 117.32 243.468 116.744 242.38 115.592C241.292 114.44 240.748 112.797 240.748 110.664V99.464H243.596V110.696C243.596 112.125 243.938 113.192 244.62 113.896C245.303 114.6 246.359 114.952 247.788 114.952C249.239 114.952 250.306 114.6 250.988 113.896C251.692 113.192 252.044 112.125 252.044 110.696V99.464H254.892V110.664C254.892 112.797 254.338 114.44 253.228 115.592C252.14 116.744 250.327 117.32 247.788 117.32ZM266.237 117.32C264.231 117.32 262.674 116.84 261.565 115.88C260.477 114.899 259.933 113.437 259.933 111.496V109.544C259.933 108.477 260.082 107.635 260.381 107.016C260.679 106.397 260.999 105.864 261.341 105.416C261.703 104.925 262.013 104.499 262.269 104.136C262.546 103.773 262.685 103.336 262.685 102.824C262.685 102.376 262.567 102.056 262.333 101.864C262.119 101.672 261.842 101.576 261.501 101.576C261.245 101.576 260.967 101.619 260.669 101.704C260.391 101.789 260.114 101.896 259.837 102.024L259.197 99.976C259.581 99.72 260.05 99.5387 260.605 99.432C261.181 99.3253 261.682 99.272 262.109 99.272C262.898 99.272 263.527 99.4107 263.997 99.688C264.487 99.9653 264.839 100.349 265.053 100.84C265.266 101.309 265.373 101.864 265.373 102.504C265.373 103.293 265.234 103.944 264.957 104.456C264.701 104.968 264.391 105.469 264.029 105.96C263.666 106.493 263.367 107.005 263.133 107.496C262.898 107.987 262.781 108.627 262.781 109.416V111.304C262.781 112.285 262.941 113.043 263.261 113.576C263.581 114.109 264.007 114.483 264.541 114.696C265.074 114.888 265.639 114.984 266.237 114.984C267.303 114.984 268.114 114.739 268.669 114.248C269.245 113.736 269.533 112.957 269.533 111.912V99.464H272.381V112.072C272.381 113.715 271.858 115.005 270.813 115.944C269.789 116.861 268.263 117.32 266.237 117.32ZM281.081 117.32C280.249 117.32 279.438 117.235 278.649 117.064C277.881 116.893 277.059 116.573 276.185 116.104L277.081 113.928C277.55 114.205 278.083 114.451 278.681 114.664C279.278 114.856 279.971 114.952 280.761 114.952C282.339 114.952 283.566 114.376 284.441 113.224C285.337 112.051 285.785 110.365 285.785 108.168C285.785 106.013 285.326 104.371 284.409 103.24C283.513 102.088 282.126 101.512 280.249 101.512C279.566 101.512 278.873 101.587 278.169 101.736C277.465 101.885 276.846 102.109 276.313 102.408V100.008C276.931 99.688 277.603 99.464 278.329 99.336C279.075 99.208 279.822 99.144 280.569 99.144C282.489 99.144 284.046 99.528 285.241 100.296C286.435 101.043 287.31 102.088 287.865 103.432C288.419 104.776 288.697 106.355 288.697 108.168C288.697 110.984 288.057 113.213 286.777 114.856C285.518 116.499 283.619 117.32 281.081 117.32ZM299.295 117.32C297.588 117.32 296.244 116.925 295.263 116.136C294.303 115.325 293.62 114.237 293.215 112.872C292.831 111.507 292.639 110.003 292.639 108.36C292.639 106.547 292.82 105.053 293.183 103.88C293.567 102.685 294.1 101.747 294.783 101.064C295.487 100.36 296.319 99.8693 297.279 99.592C298.26 99.2933 299.337 99.144 300.511 99.144C302.217 99.144 303.604 99.4 304.671 99.912C305.759 100.403 306.559 101.107 307.071 102.024C307.583 102.941 307.839 104.04 307.839 105.32V117H305.023V105.576C305.023 104.253 304.692 103.251 304.031 102.568C303.369 101.864 302.228 101.512 300.607 101.512C299.625 101.512 298.74 101.693 297.951 102.056C297.183 102.419 296.575 103.091 296.127 104.072C295.7 105.053 295.487 106.493 295.487 108.392C295.487 109.629 295.604 110.749 295.839 111.752C296.095 112.733 296.532 113.512 297.151 114.088C297.769 114.664 298.633 114.952 299.743 114.952C300.063 114.952 300.361 114.931 300.639 114.888C300.916 114.845 301.183 114.781 301.439 114.696L301.727 116.904C301.385 117.053 300.991 117.16 300.543 117.224C300.116 117.288 299.7 117.32 299.295 117.32ZM319.078 117.32C317.819 117.32 316.731 117.107 315.814 116.68C314.918 116.232 314.224 115.56 313.734 114.664C313.264 113.768 313.03 112.605 313.03 111.176V99.464H315.878V111.016C315.878 112.296 316.198 113.267 316.838 113.928C317.499 114.589 318.448 114.92 319.686 114.92C321.179 114.92 322.331 114.44 323.142 113.48C323.974 112.52 324.39 111.229 324.39 109.608V99.464H327.238V117H324.87L324.742 114.408H324.582C324.198 115.261 323.526 115.965 322.566 116.52C321.627 117.053 320.464 117.32 319.078 117.32ZM324.942 97.448C323.876 97.448 323.033 97.2027 322.414 96.712C321.796 96.2 321.486 95.4853 321.486 94.568C321.486 93.6293 321.796 92.9147 322.414 92.424C323.033 91.9333 323.876 91.688 324.942 91.688C326.009 91.688 326.862 91.9333 327.502 92.424C328.142 92.9147 328.462 93.6293 328.462 94.568C328.462 95.4853 328.142 96.2 327.502 96.712C326.862 97.2027 326.009 97.448 324.942 97.448ZM324.942 95.944C325.454 95.944 325.849 95.816 326.126 95.56C326.382 95.304 326.51 94.9733 326.51 94.568C326.51 94.1413 326.382 93.8107 326.126 93.576C325.849 93.32 325.454 93.192 324.942 93.192C324.452 93.192 324.078 93.32 323.822 93.576C323.545 93.8107 323.406 94.1413 323.406 94.568C323.406 94.9733 323.545 95.304 323.822 95.56C324.078 95.816 324.452 95.944 324.942 95.944ZM320.869 89.928V88.808C321.146 88.744 321.445 88.648 321.765 88.52C322.085 88.392 322.362 88.232 322.597 88.04C322.832 87.8267 322.949 87.56 322.949 87.24C322.949 87.0053 322.885 86.824 322.757 86.696C322.629 86.568 322.448 86.504 322.213 86.504C322.042 86.504 321.872 86.536 321.701 86.6C321.509 86.6427 321.328 86.7173 321.157 86.824L320.581 85.352C320.965 85.096 321.402 84.9253 321.893 84.84C322.362 84.7547 322.736 84.712 323.013 84.712C323.568 84.712 324.069 84.8613 324.517 85.16C324.965 85.4373 325.189 85.9173 325.189 86.6C325.189 86.8773 325.136 87.1973 325.029 87.56C324.901 87.9013 324.645 88.1787 324.261 88.392L324.069 87.784H328.933V89.928H320.869ZM337.615 117V104.552C337.615 103.507 337.369 102.739 336.879 102.248C336.409 101.757 335.609 101.512 334.479 101.512C333.711 101.512 332.985 101.619 332.303 101.832C331.641 102.024 331.001 102.301 330.383 102.664V100.104C330.809 99.8907 331.417 99.6773 332.207 99.464C332.996 99.2507 333.935 99.144 335.023 99.144C336.132 99.144 337.092 99.304 337.903 99.624C338.713 99.944 339.343 100.477 339.791 101.224C340.239 101.949 340.463 102.92 340.463 104.136V117H337.615Z" fill="white"/>
</svg>
